<?xml version="1.0" encoding="UTF-8"?>
<!DOCTYPE svg
PUBLIC "-//W3C//DTD SVG 1.1//EN"
       "http://www.w3.org/Graphics/SVG/1.1/DTD/svg11.dtd">
<svg viewBox="-12 19 1533 1001" width="1545px" height="982px" xmlns="http://www.w3.org/2000/svg" version="1.1">
   <line x1="1251" y1="104" x2="1261" y2="104" style="stroke:#0b0;stroke-width:1;"/>
   <line x1="1389" y1="66" x2="1399" y2="66" style="stroke:#0b0;stroke-width:1;"/>
   <line x1="1261" y1="104" x2="1389" y2="66" style="stroke:#0b0;stroke-width:1;"/>
   <line x1="1258.5" y1="104" x2="1254.9644660941" y2="107.53553390593" style="stroke:#0b0;stroke-width:2;"/>
   <line x1="1258.5" y1="104" x2="1254.9644660941" y2="100.46446609407" style="stroke:#0b0;stroke-width:2;"/>
   <line x1="1394" y1="66" x2="1390.4644660941" y2="69.535533905933" style="stroke:#0b0;stroke-width:2;"/>
   <line x1="1394" y1="66" x2="1390.4644660941" y2="62.464466094067" style="stroke:#0b0;stroke-width:2;"/>
   <line x1="1113" y1="84" x2="1103" y2="84" style="stroke:#cb0;stroke-width:1;"/>
   <line x1="1039" y1="67" x2="1029" y2="67" style="stroke:#cb0;stroke-width:1;"/>
   <line x1="1103" y1="84" x2="1039" y2="67" style="stroke:#cb0;stroke-width:1;"/>
   <line x1="1105.5" y1="84" x2="1109.0355339059" y2="87.535533905933" style="stroke:#cb0;stroke-width:2;"/>
   <line x1="1105.5" y1="84" x2="1109.0355339059" y2="80.464466094067" style="stroke:#cb0;stroke-width:2;"/>
   <line x1="1034" y1="67" x2="1037.5355339059" y2="70.535533905933" style="stroke:#cb0;stroke-width:2;"/>
   <line x1="1034" y1="67" x2="1037.5355339059" y2="63.464466094067" style="stroke:#cb0;stroke-width:2;"/>
   <line x1="583" y1="647" x2="573" y2="647" style="stroke:#bbb;stroke-width:1;"/>
   <line x1="495" y1="607" x2="485" y2="607" style="stroke:#bbb;stroke-width:1;"/>
   <line x1="573" y1="647" x2="495" y2="607" style="stroke:#bbb;stroke-width:1;"/>
   <line x1="575.5" y1="647" x2="579.03553390593" y2="650.53553390593" style="stroke:#bbb;stroke-width:2;"/>
   <line x1="575.5" y1="647" x2="579.03553390593" y2="643.46446609407" style="stroke:#bbb;stroke-width:2;"/>
   <line x1="490" y1="607" x2="493.53553390593" y2="610.53553390593" style="stroke:#bbb;stroke-width:2;"/>
   <line x1="490" y1="607" x2="493.53553390593" y2="603.46446609407" style="stroke:#bbb;stroke-width:2;"/>
   <line x1="728" y1="627" x2="738" y2="627" style="stroke:#333;stroke-width:1;"/>
   <line x1="887" y1="67" x2="897" y2="67" style="stroke:#333;stroke-width:1;"/>
   <line x1="738" y1="627" x2="887" y2="67" style="stroke:#333;stroke-width:1;"/>
   <line x1="735.5" y1="627" x2="731.96446609407" y2="630.53553390593" style="stroke:#333;stroke-width:2;"/>
   <line x1="735.5" y1="627" x2="731.96446609407" y2="623.46446609407" style="stroke:#333;stroke-width:2;"/>
   <line x1="892" y1="67" x2="888.46446609407" y2="70.535533905933" style="stroke:#333;stroke-width:2;"/>
   <line x1="892" y1="67" x2="888.46446609407" y2="63.464466094067" style="stroke:#333;stroke-width:2;"/>
   <line x1="1110" y1="311" x2="1100" y2="311" style="stroke:#cb0;stroke-width:1;"/>
   <line x1="1101" y1="463" x2="1111" y2="463" style="stroke:#cb0;stroke-width:1;"/>
   <line x1="1100" y1="311" x2="1101" y2="463" style="stroke:#cb0;stroke-width:1;"/>
   <line x1="1102.5" y1="311" x2="1106.0355339059" y2="314.53553390593" style="stroke:#cb0;stroke-width:2;"/>
   <line x1="1102.5" y1="311" x2="1106.0355339059" y2="307.46446609407" style="stroke:#cb0;stroke-width:2;"/>
   <line x1="1106" y1="463" x2="1102.4644660941" y2="466.53553390593" style="stroke:#cb0;stroke-width:2;"/>
   <line x1="1106" y1="463" x2="1102.4644660941" y2="459.46446609407" style="stroke:#cb0;stroke-width:2;"/>
   <line x1="1110" y1="291" x2="1100" y2="291" style="stroke:#bbb;stroke-width:1;"/>
   <line x1="1039" y1="67" x2="1029" y2="67" style="stroke:#bbb;stroke-width:1;"/>
   <line x1="1100" y1="291" x2="1039" y2="67" style="stroke:#bbb;stroke-width:1;"/>
   <line x1="1102.5" y1="291" x2="1106.0355339059" y2="294.53553390593" style="stroke:#bbb;stroke-width:2;"/>
   <line x1="1102.5" y1="291" x2="1106.0355339059" y2="287.46446609407" style="stroke:#bbb;stroke-width:2;"/>
   <line x1="1034" y1="67" x2="1037.5355339059" y2="70.535533905933" style="stroke:#bbb;stroke-width:2;"/>
   <line x1="1034" y1="67" x2="1037.5355339059" y2="63.464466094067" style="stroke:#bbb;stroke-width:2;"/>
   <line x1="608" y1="348" x2="598" y2="348" style="stroke:#b0b;stroke-width:1;"/>
   <line x1="596" y1="490" x2="606" y2="490" style="stroke:#b0b;stroke-width:1;"/>
   <line x1="598" y1="348" x2="596" y2="490" style="stroke:#b0b;stroke-width:1;"/>
   <line x1="600.5" y1="348" x2="604.03553390593" y2="351.53553390593" style="stroke:#b0b;stroke-width:2;"/>
   <line x1="600.5" y1="348" x2="604.03553390593" y2="344.46446609407" style="stroke:#b0b;stroke-width:2;"/>
   <line x1="601" y1="490" x2="597.46446609407" y2="493.53553390593" style="stroke:#b0b;stroke-width:2;"/>
   <line x1="601" y1="490" x2="597.46446609407" y2="486.46446609407" style="stroke:#b0b;stroke-width:2;"/>
   <line x1="794" y1="88" x2="804" y2="88" style="stroke:#0bf;stroke-width:1;"/>
   <line x1="887" y1="67" x2="897" y2="67" style="stroke:#0bf;stroke-width:1;"/>
   <line x1="804" y1="88" x2="887" y2="67" style="stroke:#0bf;stroke-width:1;"/>
   <line x1="801.5" y1="88" x2="797.96446609407" y2="91.535533905933" style="stroke:#0bf;stroke-width:2;"/>
   <line x1="801.5" y1="88" x2="797.96446609407" y2="84.464466094067" style="stroke:#0bf;stroke-width:2;"/>
   <line x1="892" y1="67" x2="888.46446609407" y2="70.535533905933" style="stroke:#0bf;stroke-width:2;"/>
   <line x1="892" y1="67" x2="888.46446609407" y2="63.464466094067" style="stroke:#0bf;stroke-width:2;"/>
   <line x1="1395" y1="260" x2="1385" y2="260" style="stroke:#333;stroke-width:1;"/>
   <line x1="1385" y1="374" x2="1395" y2="374" style="stroke:#333;stroke-width:1;"/>
   <line x1="1385" y1="260" x2="1385" y2="374" style="stroke:#333;stroke-width:1;"/>
   <line x1="1387.5" y1="260" x2="1391.0355339059" y2="263.53553390593" style="stroke:#333;stroke-width:2;"/>
   <line x1="1387.5" y1="260" x2="1391.0355339059" y2="256.46446609407" style="stroke:#333;stroke-width:2;"/>
   <line x1="1390" y1="374" x2="1386.4644660941" y2="377.53553390593" style="stroke:#333;stroke-width:2;"/>
   <line x1="1390" y1="374" x2="1386.4644660941" y2="370.46446609407" style="stroke:#333;stroke-width:2;"/>
   <line x1="1395" y1="240" x2="1385" y2="240" style="stroke:#bbb;stroke-width:1;"/>
   <line x1="1389" y1="66" x2="1399" y2="66" style="stroke:#bbb;stroke-width:1;"/>
   <line x1="1385" y1="240" x2="1389" y2="66" style="stroke:#bbb;stroke-width:1;"/>
   <line x1="1387.5" y1="240" x2="1391.0355339059" y2="243.53553390593" style="stroke:#bbb;stroke-width:2;"/>
   <line x1="1387.5" y1="240" x2="1391.0355339059" y2="236.46446609407" style="stroke:#bbb;stroke-width:2;"/>
   <line x1="1394" y1="66" x2="1390.4644660941" y2="69.535533905933" style="stroke:#bbb;stroke-width:2;"/>
   <line x1="1394" y1="66" x2="1390.4644660941" y2="62.464466094067" style="stroke:#bbb;stroke-width:2;"/>
   <line x1="516" y1="88" x2="526" y2="88" style="stroke:#0bf;stroke-width:1;"/>
   <line x1="598" y1="68" x2="608" y2="68" style="stroke:#0bf;stroke-width:1;"/>
   <line x1="526" y1="88" x2="598" y2="68" style="stroke:#0bf;stroke-width:1;"/>
   <line x1="523.5" y1="88" x2="519.96446609407" y2="91.535533905933" style="stroke:#0bf;stroke-width:2;"/>
   <line x1="523.5" y1="88" x2="519.96446609407" y2="84.464466094067" style="stroke:#0bf;stroke-width:2;"/>
   <line x1="603" y1="68" x2="599.46446609407" y2="71.535533905933" style="stroke:#0bf;stroke-width:2;"/>
   <line x1="603" y1="68" x2="599.46446609407" y2="64.464466094067" style="stroke:#0bf;stroke-width:2;"/>
   <line x1="897" y1="207" x2="887" y2="207" style="stroke:#bbb;stroke-width:1;"/>
   <line x1="888" y1="344" x2="898" y2="344" style="stroke:#bbb;stroke-width:1;"/>
   <line x1="887" y1="207" x2="888" y2="344" style="stroke:#bbb;stroke-width:1;"/>
   <line x1="889.5" y1="207" x2="893.03553390593" y2="210.53553390593" style="stroke:#bbb;stroke-width:2;"/>
   <line x1="889.5" y1="207" x2="893.03553390593" y2="203.46446609407" style="stroke:#bbb;stroke-width:2;"/>
   <line x1="893" y1="344" x2="889.46446609407" y2="347.53553390593" style="stroke:#bbb;stroke-width:2;"/>
   <line x1="893" y1="344" x2="889.46446609407" y2="340.46446609407" style="stroke:#bbb;stroke-width:2;"/>
   <rect width="86" height="20" x="1395" y="344" style="fill:#007;stroke:black;"/>
   <text width="86" height="20" x="1400" y="358" style="fill:#fff;" font-family="Arial" font-size="16px"> alimentos</text>
   <rect width="86" height="20" x="1395" y="364" style="fill:#aea;stroke:black;"/>
   <text width="86" height="20" x="1400" y="378" style="fill:black;" font-family="Arial" font-size="16px">id</text>
   <rect width="86" height="20" x="1395" y="384" style="fill:none;stroke:black;"/>
   <text width="86" height="20" x="1400" y="398" style="fill:black;" font-family="Arial" font-size="16px">nombre</text>
   <rect width="86" height="20" x="1395" y="404" style="fill:none;stroke:black;"/>
   <text width="86" height="20" x="1400" y="418" style="fill:black;" font-family="Arial" font-size="16px">categoria</text>
   <rect width="86" height="20" x="1395" y="424" style="fill:none;stroke:black;"/>
   <text width="86" height="20" x="1400" y="438" style="fill:black;" font-family="Arial" font-size="16px">created_at</text>
   <rect width="86" height="20" x="1395" y="444" style="fill:none;stroke:black;"/>
   <text width="86" height="20" x="1400" y="458" style="fill:black;" font-family="Arial" font-size="16px">updated_at</text>
   <rect width="138" height="20" x="1113" y="34" style="fill:#007;stroke:black;"/>
   <text width="138" height="20" x="1118" y="48" style="fill:#fff;" font-family="Arial" font-size="16px"> asignacion_menus</text>
   <rect width="138" height="20" x="1113" y="54" style="fill:#aea;stroke:black;"/>
   <text width="138" height="20" x="1118" y="68" style="fill:black;" font-family="Arial" font-size="16px">id_asignacion</text>
   <rect width="138" height="20" x="1113" y="74" style="fill:none;stroke:black;"/>
   <text width="138" height="20" x="1118" y="88" style="fill:black;" font-family="Arial" font-size="16px">id_usuario</text>
   <rect width="138" height="20" x="1113" y="94" style="fill:none;stroke:black;"/>
   <text width="138" height="20" x="1118" y="108" style="fill:black;" font-family="Arial" font-size="16px">id_menu</text>
   <rect width="138" height="20" x="1113" y="114" style="fill:none;stroke:black;"/>
   <text width="138" height="20" x="1118" y="128" style="fill:black;" font-family="Arial" font-size="16px">fecha_asignacion</text>
   <rect width="138" height="20" x="1113" y="134" style="fill:none;stroke:black;"/>
   <text width="138" height="20" x="1118" y="148" style="fill:black;" font-family="Arial" font-size="16px">created_at</text>
   <rect width="138" height="20" x="1113" y="154" style="fill:none;stroke:black;"/>
   <text width="138" height="20" x="1118" y="168" style="fill:black;" font-family="Arial" font-size="16px">updated_at</text>
   <rect width="145" height="20" x="583" y="577" style="fill:#007;stroke:black;"/>
   <text width="145" height="20" x="588" y="591" style="fill:#fff;" font-family="Arial" font-size="16px"> asignacion_objetivo</text>
   <rect width="145" height="20" x="583" y="597" style="fill:#aea;stroke:black;"/>
   <text width="145" height="20" x="588" y="611" style="fill:black;" font-family="Arial" font-size="16px">id_asignacion</text>
   <rect width="145" height="20" x="583" y="617" style="fill:none;stroke:black;"/>
   <text width="145" height="20" x="588" y="631" style="fill:black;" font-family="Arial" font-size="16px">id_usuario</text>
   <rect width="145" height="20" x="583" y="637" style="fill:none;stroke:black;"/>
   <text width="145" height="20" x="588" y="651" style="fill:black;" font-family="Arial" font-size="16px">id_objetivo</text>
   <rect width="145" height="20" x="583" y="657" style="fill:none;stroke:black;"/>
   <text width="145" height="20" x="588" y="671" style="fill:black;" font-family="Arial" font-size="16px">fecha_asignacion</text>
   <rect width="145" height="20" x="583" y="677" style="fill:none;stroke:black;"/>
   <text width="145" height="20" x="588" y="691" style="fill:black;" font-family="Arial" font-size="16px">estado</text>
   <rect width="145" height="20" x="583" y="697" style="fill:none;stroke:black;"/>
   <text width="145" height="20" x="588" y="711" style="fill:black;" font-family="Arial" font-size="16px">calificacion</text>
   <rect width="145" height="20" x="583" y="717" style="fill:none;stroke:black;"/>
   <text width="145" height="20" x="588" y="731" style="fill:black;" font-family="Arial" font-size="16px">created_at</text>
   <rect width="145" height="20" x="583" y="737" style="fill:none;stroke:black;"/>
   <text width="145" height="20" x="588" y="751" style="fill:black;" font-family="Arial" font-size="16px">updated_at</text>
   <rect width="171" height="20" x="1110" y="241" style="fill:#007;stroke:black;"/>
   <text width="171" height="20" x="1115" y="255" style="fill:#fff;" font-family="Arial" font-size="16px"> asignacion_preferencia</text>
   <rect width="171" height="20" x="1110" y="261" style="fill:#aea;stroke:black;"/>
   <text width="171" height="20" x="1115" y="275" style="fill:black;" font-family="Arial" font-size="16px">id_asignacion</text>
   <rect width="171" height="20" x="1110" y="281" style="fill:none;stroke:black;"/>
   <text width="171" height="20" x="1115" y="295" style="fill:black;" font-family="Arial" font-size="16px">id_usuario</text>
   <rect width="171" height="20" x="1110" y="301" style="fill:none;stroke:black;"/>
   <text width="171" height="20" x="1115" y="315" style="fill:black;" font-family="Arial" font-size="16px">id_preferencia</text>
   <rect width="171" height="20" x="1110" y="321" style="fill:none;stroke:black;"/>
   <text width="171" height="20" x="1115" y="335" style="fill:black;" font-family="Arial" font-size="16px">fecha</text>
   <rect width="171" height="20" x="1110" y="341" style="fill:none;stroke:black;"/>
   <text width="171" height="20" x="1115" y="355" style="fill:black;" font-family="Arial" font-size="16px">created_at</text>
   <rect width="171" height="20" x="1110" y="361" style="fill:none;stroke:black;"/>
   <text width="171" height="20" x="1115" y="375" style="fill:black;" font-family="Arial" font-size="16px">updated_at</text>
   <rect width="80" height="20" x="3" y="788" style="fill:#007;stroke:black;"/>
   <text width="80" height="20" x="8" y="802" style="fill:#fff;" font-family="Arial" font-size="16px"> cache</text>
   <rect width="80" height="20" x="3" y="808" style="fill:none;stroke:black;"/>
   <text width="80" height="20" x="8" y="822" style="fill:black;" font-family="Arial" font-size="16px">key</text>
   <rect width="80" height="20" x="3" y="828" style="fill:none;stroke:black;"/>
   <text width="80" height="20" x="8" y="842" style="fill:black;" font-family="Arial" font-size="16px">value</text>
   <rect width="80" height="20" x="3" y="848" style="fill:none;stroke:black;"/>
   <text width="80" height="20" x="8" y="862" style="fill:black;" font-family="Arial" font-size="16px">expiration</text>
   <rect width="94" height="20" x="8" y="765" style="fill:#007;stroke:black;"/>
   <text width="94" height="20" x="13" y="779" style="fill:#fff;" font-family="Arial" font-size="16px"> cache_locks</text>
   <rect width="94" height="20" x="8" y="785" style="fill:none;stroke:black;"/>
   <text width="94" height="20" x="13" y="799" style="fill:black;" font-family="Arial" font-size="16px">key</text>
   <rect width="94" height="20" x="8" y="805" style="fill:none;stroke:black;"/>
   <text width="94" height="20" x="13" y="819" style="fill:black;" font-family="Arial" font-size="16px">owner</text>
   <rect width="94" height="20" x="8" y="825" style="fill:none;stroke:black;"/>
   <text width="94" height="20" x="13" y="839" style="fill:black;" font-family="Arial" font-size="16px">expiration</text>
   <rect width="100" height="20" x="606" y="460" style="fill:#007;stroke:black;"/>
   <text width="100" height="20" x="611" y="474" style="fill:#fff;" font-family="Arial" font-size="16px"> estado_fisico</text>
   <rect width="100" height="20" x="606" y="480" style="fill:#aea;stroke:black;"/>
   <text width="100" height="20" x="611" y="494" style="fill:black;" font-family="Arial" font-size="16px">id</text>
   <rect width="100" height="20" x="606" y="500" style="fill:none;stroke:black;"/>
   <text width="100" height="20" x="611" y="514" style="fill:black;" font-family="Arial" font-size="16px">created_at</text>
   <rect width="100" height="20" x="606" y="520" style="fill:none;stroke:black;"/>
   <text width="100" height="20" x="611" y="534" style="fill:black;" font-family="Arial" font-size="16px">updated_at</text>
   <rect width="87" height="20" x="10" y="789" style="fill:#007;stroke:black;"/>
   <text width="87" height="20" x="15" y="803" style="fill:#fff;" font-family="Arial" font-size="16px"> failed_jobs</text>
   <rect width="87" height="20" x="10" y="809" style="fill:#aea;stroke:black;"/>
   <text width="87" height="20" x="15" y="823" style="fill:black;" font-family="Arial" font-size="16px">id</text>
   <rect width="87" height="20" x="10" y="829" style="fill:none;stroke:black;"/>
   <text width="87" height="20" x="15" y="843" style="fill:black;" font-family="Arial" font-size="16px">uuid</text>
   <rect width="87" height="20" x="10" y="849" style="fill:none;stroke:black;"/>
   <text width="87" height="20" x="15" y="863" style="fill:black;" font-family="Arial" font-size="16px">connection</text>
   <rect width="87" height="20" x="10" y="869" style="fill:none;stroke:black;"/>
   <text width="87" height="20" x="15" y="883" style="fill:black;" font-family="Arial" font-size="16px">queue</text>
   <rect width="87" height="20" x="10" y="889" style="fill:none;stroke:black;"/>
   <text width="87" height="20" x="15" y="903" style="fill:black;" font-family="Arial" font-size="16px">payload</text>
   <rect width="87" height="20" x="10" y="909" style="fill:none;stroke:black;"/>
   <text width="87" height="20" x="15" y="923" style="fill:black;" font-family="Arial" font-size="16px">exception</text>
   <rect width="87" height="20" x="10" y="929" style="fill:none;stroke:black;"/>
   <text width="87" height="20" x="15" y="943" style="fill:black;" font-family="Arial" font-size="16px">failed_at</text>
   <rect width="92" height="20" x="7" y="763" style="fill:#007;stroke:black;"/>
   <text width="92" height="20" x="12" y="777" style="fill:#fff;" font-family="Arial" font-size="16px"> jobs</text>
   <rect width="92" height="20" x="7" y="783" style="fill:#aea;stroke:black;"/>
   <text width="92" height="20" x="12" y="797" style="fill:black;" font-family="Arial" font-size="16px">id</text>
   <rect width="92" height="20" x="7" y="803" style="fill:none;stroke:black;"/>
   <text width="92" height="20" x="12" y="817" style="fill:black;" font-family="Arial" font-size="16px">queue</text>
   <rect width="92" height="20" x="7" y="823" style="fill:none;stroke:black;"/>
   <text width="92" height="20" x="12" y="837" style="fill:black;" font-family="Arial" font-size="16px">payload</text>
   <rect width="92" height="20" x="7" y="843" style="fill:none;stroke:black;"/>
   <text width="92" height="20" x="12" y="857" style="fill:black;" font-family="Arial" font-size="16px">attempts</text>
   <rect width="92" height="20" x="7" y="863" style="fill:none;stroke:black;"/>
   <text width="92" height="20" x="12" y="877" style="fill:black;" font-family="Arial" font-size="16px">reserved_at</text>
   <rect width="92" height="20" x="7" y="883" style="fill:none;stroke:black;"/>
   <text width="92" height="20" x="12" y="897" style="fill:black;" font-family="Arial" font-size="16px">available_at</text>
   <rect width="92" height="20" x="7" y="903" style="fill:none;stroke:black;"/>
   <text width="92" height="20" x="12" y="917" style="fill:black;" font-family="Arial" font-size="16px">created_at</text>
   <rect width="101" height="20" x="8" y="766" style="fill:#007;stroke:black;"/>
   <text width="101" height="20" x="13" y="780" style="fill:#fff;" font-family="Arial" font-size="16px"> job_batches</text>
   <rect width="101" height="20" x="8" y="786" style="fill:none;stroke:black;"/>
   <text width="101" height="20" x="13" y="800" style="fill:black;" font-family="Arial" font-size="16px">id</text>
   <rect width="101" height="20" x="8" y="806" style="fill:none;stroke:black;"/>
   <text width="101" height="20" x="13" y="820" style="fill:black;" font-family="Arial" font-size="16px">name</text>
   <rect width="101" height="20" x="8" y="826" style="fill:none;stroke:black;"/>
   <text width="101" height="20" x="13" y="840" style="fill:black;" font-family="Arial" font-size="16px">total_jobs</text>
   <rect width="101" height="20" x="8" y="846" style="fill:none;stroke:black;"/>
   <text width="101" height="20" x="13" y="860" style="fill:black;" font-family="Arial" font-size="16px">pending_jobs</text>
   <rect width="101" height="20" x="8" y="866" style="fill:none;stroke:black;"/>
   <text width="101" height="20" x="13" y="880" style="fill:black;" font-family="Arial" font-size="16px">failed_jobs</text>
   <rect width="101" height="20" x="8" y="886" style="fill:none;stroke:black;"/>
   <text width="101" height="20" x="13" y="900" style="fill:black;" font-family="Arial" font-size="16px">failed_job_ids</text>
   <rect width="101" height="20" x="8" y="906" style="fill:none;stroke:black;"/>
   <text width="101" height="20" x="13" y="920" style="fill:black;" font-family="Arial" font-size="16px">options</text>
   <rect width="101" height="20" x="8" y="926" style="fill:none;stroke:black;"/>
   <text width="101" height="20" x="13" y="940" style="fill:black;" font-family="Arial" font-size="16px">cancelled_at</text>
   <rect width="101" height="20" x="8" y="946" style="fill:none;stroke:black;"/>
   <text width="101" height="20" x="13" y="960" style="fill:black;" font-family="Arial" font-size="16px">created_at</text>
   <rect width="101" height="20" x="8" y="966" style="fill:none;stroke:black;"/>
   <text width="101" height="20" x="13" y="980" style="fill:black;" font-family="Arial" font-size="16px">finished_at</text>
   <rect width="186" height="20" x="608" y="38" style="fill:#007;stroke:black;"/>
   <text width="186" height="20" x="613" y="52" style="fill:#fff;" font-family="Arial" font-size="16px"> medidas</text>
   <rect width="186" height="20" x="608" y="58" style="fill:#aea;stroke:black;"/>
   <text width="186" height="20" x="613" y="72" style="fill:black;" font-family="Arial" font-size="16px">id</text>
   <rect width="186" height="20" x="608" y="78" style="fill:none;stroke:black;"/>
   <text width="186" height="20" x="613" y="92" style="fill:black;" font-family="Arial" font-size="16px">id_usuario</text>
   <rect width="186" height="20" x="608" y="98" style="fill:none;stroke:black;"/>
   <text width="186" height="20" x="613" y="112" style="fill:black;" font-family="Arial" font-size="16px">peso</text>
   <rect width="186" height="20" x="608" y="118" style="fill:none;stroke:black;"/>
   <text width="186" height="20" x="613" y="132" style="fill:black;" font-family="Arial" font-size="16px">talla</text>
   <rect width="186" height="20" x="608" y="138" style="fill:none;stroke:black;"/>
   <text width="186" height="20" x="613" y="152" style="fill:black;" font-family="Arial" font-size="16px">edad</text>
   <rect width="186" height="20" x="608" y="158" style="fill:none;stroke:black;"/>
   <text width="186" height="20" x="613" y="172" style="fill:black;" font-family="Arial" font-size="16px">genero</text>
   <rect width="186" height="20" x="608" y="178" style="fill:none;stroke:black;"/>
   <text width="186" height="20" x="613" y="192" style="fill:black;" font-family="Arial" font-size="16px">circunferencia_brazo</text>
   <rect width="186" height="20" x="608" y="198" style="fill:none;stroke:black;"/>
   <text width="186" height="20" x="613" y="212" style="fill:black;" font-family="Arial" font-size="16px">circunferencia_antebrazo</text>
   <rect width="186" height="20" x="608" y="218" style="fill:none;stroke:black;"/>
   <text width="186" height="20" x="613" y="232" style="fill:black;" font-family="Arial" font-size="16px">circunferencia_cintura</text>
   <rect width="186" height="20" x="608" y="238" style="fill:none;stroke:black;"/>
   <text width="186" height="20" x="613" y="252" style="fill:black;" font-family="Arial" font-size="16px">circunferencia_caderas</text>
   <rect width="186" height="20" x="608" y="258" style="fill:none;stroke:black;"/>
   <text width="186" height="20" x="613" y="272" style="fill:black;" font-family="Arial" font-size="16px">circunferencia_muslos</text>
   <rect width="186" height="20" x="608" y="278" style="fill:none;stroke:black;"/>
   <text width="186" height="20" x="613" y="292" style="fill:black;" font-family="Arial" font-size="16px">circunferencia_pantorrilla</text>
   <rect width="186" height="20" x="608" y="298" style="fill:none;stroke:black;"/>
   <text width="186" height="20" x="613" y="312" style="fill:black;" font-family="Arial" font-size="16px">circunferencia_cuello</text>
   <rect width="186" height="20" x="608" y="318" style="fill:none;stroke:black;"/>
   <text width="186" height="20" x="613" y="332" style="fill:black;" font-family="Arial" font-size="16px">fecha_registro</text>
   <rect width="186" height="20" x="608" y="338" style="fill:none;stroke:black;"/>
   <text width="186" height="20" x="613" y="352" style="fill:black;" font-family="Arial" font-size="16px">id_estado</text>
   <rect width="186" height="20" x="608" y="358" style="fill:none;stroke:black;"/>
   <text width="186" height="20" x="613" y="372" style="fill:black;" font-family="Arial" font-size="16px">created_at</text>
   <rect width="186" height="20" x="608" y="378" style="fill:none;stroke:black;"/>
   <text width="186" height="20" x="613" y="392" style="fill:black;" font-family="Arial" font-size="16px">updated_at</text>
   <rect width="86" height="20" x="1399" y="36" style="fill:#007;stroke:black;"/>
   <text width="86" height="20" x="1404" y="50" style="fill:#fff;" font-family="Arial" font-size="16px"> menus</text>
   <rect width="86" height="20" x="1399" y="56" style="fill:#aea;stroke:black;"/>
   <text width="86" height="20" x="1404" y="70" style="fill:black;" font-family="Arial" font-size="16px">id</text>
   <rect width="86" height="20" x="1399" y="76" style="fill:none;stroke:black;"/>
   <text width="86" height="20" x="1404" y="90" style="fill:black;" font-family="Arial" font-size="16px">tipo</text>
   <rect width="86" height="20" x="1399" y="96" style="fill:none;stroke:black;"/>
   <text width="86" height="20" x="1404" y="110" style="fill:black;" font-family="Arial" font-size="16px">fecha</text>
   <rect width="86" height="20" x="1399" y="116" style="fill:none;stroke:black;"/>
   <text width="86" height="20" x="1404" y="130" style="fill:black;" font-family="Arial" font-size="16px">created_at</text>
   <rect width="86" height="20" x="1399" y="136" style="fill:none;stroke:black;"/>
   <text width="86" height="20" x="1404" y="150" style="fill:black;" font-family="Arial" font-size="16px">updated_at</text>
   <rect width="123" height="20" x="1395" y="190" style="fill:#007;stroke:black;"/>
   <text width="123" height="20" x="1400" y="204" style="fill:#fff;" font-family="Arial" font-size="16px"> menu_alimentos</text>
   <rect width="123" height="20" x="1395" y="210" style="fill:#aea;stroke:black;"/>
   <text width="123" height="20" x="1400" y="224" style="fill:black;" font-family="Arial" font-size="16px">id</text>
   <rect width="123" height="20" x="1395" y="230" style="fill:none;stroke:black;"/>
   <text width="123" height="20" x="1400" y="244" style="fill:black;" font-family="Arial" font-size="16px">id_menu</text>
   <rect width="123" height="20" x="1395" y="250" style="fill:none;stroke:black;"/>
   <text width="123" height="20" x="1400" y="264" style="fill:black;" font-family="Arial" font-size="16px">id_alimento</text>
   <rect width="123" height="20" x="1395" y="270" style="fill:none;stroke:black;"/>
   <text width="123" height="20" x="1400" y="284" style="fill:black;" font-family="Arial" font-size="16px">created_at</text>
   <rect width="123" height="20" x="1395" y="290" style="fill:none;stroke:black;"/>
   <text width="123" height="20" x="1400" y="304" style="fill:black;" font-family="Arial" font-size="16px">updated_at</text>
   <rect width="83" height="20" x="8" y="762" style="fill:#007;stroke:black;"/>
   <text width="83" height="20" x="13" y="776" style="fill:#fff;" font-family="Arial" font-size="16px"> migrations</text>
   <rect width="83" height="20" x="8" y="782" style="fill:#aea;stroke:black;"/>
   <text width="83" height="20" x="13" y="796" style="fill:black;" font-family="Arial" font-size="16px">id</text>
   <rect width="83" height="20" x="8" y="802" style="fill:none;stroke:black;"/>
   <text width="83" height="20" x="13" y="816" style="fill:black;" font-family="Arial" font-size="16px">migration</text>
   <rect width="83" height="20" x="8" y="822" style="fill:none;stroke:black;"/>
   <text width="83" height="20" x="13" y="836" style="fill:black;" font-family="Arial" font-size="16px">batch</text>
   <rect width="91" height="20" x="394" y="577" style="fill:#007;stroke:black;"/>
   <text width="91" height="20" x="399" y="591" style="fill:#fff;" font-family="Arial" font-size="16px"> objetivos</text>
   <rect width="91" height="20" x="394" y="597" style="fill:#aea;stroke:black;"/>
   <text width="91" height="20" x="399" y="611" style="fill:black;" font-family="Arial" font-size="16px">id</text>
   <rect width="91" height="20" x="394" y="617" style="fill:none;stroke:black;"/>
   <text width="91" height="20" x="399" y="631" style="fill:black;" font-family="Arial" font-size="16px">nombre</text>
   <rect width="91" height="20" x="394" y="637" style="fill:none;stroke:black;"/>
   <text width="91" height="20" x="399" y="651" style="fill:black;" font-family="Arial" font-size="16px">descripcion</text>
   <rect width="91" height="20" x="394" y="657" style="fill:none;stroke:black;"/>
   <text width="91" height="20" x="399" y="671" style="fill:black;" font-family="Arial" font-size="16px">created_at</text>
   <rect width="91" height="20" x="394" y="677" style="fill:none;stroke:black;"/>
   <text width="91" height="20" x="399" y="691" style="fill:black;" font-family="Arial" font-size="16px">updated_at</text>
   <rect width="172" height="20" x="8" y="765" style="fill:#007;stroke:black;"/>
   <text width="172" height="20" x="13" y="779" style="fill:#fff;" font-family="Arial" font-size="16px"> password_reset_tokens</text>
   <rect width="172" height="20" x="8" y="785" style="fill:none;stroke:black;"/>
   <text width="172" height="20" x="13" y="799" style="fill:black;" font-family="Arial" font-size="16px">email</text>
   <rect width="172" height="20" x="8" y="805" style="fill:none;stroke:black;"/>
   <text width="172" height="20" x="13" y="819" style="fill:black;" font-family="Arial" font-size="16px">token</text>
   <rect width="172" height="20" x="8" y="825" style="fill:none;stroke:black;"/>
   <text width="172" height="20" x="13" y="839" style="fill:black;" font-family="Arial" font-size="16px">created_at</text>
   <rect width="98" height="20" x="1111" y="433" style="fill:#007;stroke:black;"/>
   <text width="98" height="20" x="1116" y="447" style="fill:#fff;" font-family="Arial" font-size="16px"> preferencias</text>
   <rect width="98" height="20" x="1111" y="453" style="fill:#aea;stroke:black;"/>
   <text width="98" height="20" x="1116" y="467" style="fill:black;" font-family="Arial" font-size="16px">id</text>
   <rect width="98" height="20" x="1111" y="473" style="fill:none;stroke:black;"/>
   <text width="98" height="20" x="1116" y="487" style="fill:black;" font-family="Arial" font-size="16px">tipo</text>
   <rect width="98" height="20" x="1111" y="493" style="fill:none;stroke:black;"/>
   <text width="98" height="20" x="1116" y="507" style="fill:black;" font-family="Arial" font-size="16px">descripcion</text>
   <rect width="98" height="20" x="1111" y="513" style="fill:none;stroke:black;"/>
   <text width="98" height="20" x="1116" y="527" style="fill:black;" font-family="Arial" font-size="16px">created_at</text>
   <rect width="98" height="20" x="1111" y="533" style="fill:none;stroke:black;"/>
   <text width="98" height="20" x="1116" y="547" style="fill:black;" font-family="Arial" font-size="16px">updated_at</text>
   <rect width="150" height="20" x="366" y="38" style="fill:#007;stroke:black;"/>
   <text width="150" height="20" x="371" y="52" style="fill:#fff;" font-family="Arial" font-size="16px"> progreso</text>
   <rect width="150" height="20" x="366" y="58" style="fill:#aea;stroke:black;"/>
   <text width="150" height="20" x="371" y="72" style="fill:black;" font-family="Arial" font-size="16px">id_progreso</text>
   <rect width="150" height="20" x="366" y="78" style="fill:none;stroke:black;"/>
   <text width="150" height="20" x="371" y="92" style="fill:black;" font-family="Arial" font-size="16px">id_medida</text>
   <rect width="150" height="20" x="366" y="98" style="fill:none;stroke:black;"/>
   <text width="150" height="20" x="371" y="112" style="fill:black;" font-family="Arial" font-size="16px">fecha</text>
   <rect width="150" height="20" x="366" y="118" style="fill:none;stroke:black;"/>
   <text width="150" height="20" x="371" y="132" style="fill:black;" font-family="Arial" font-size="16px">imc</text>
   <rect width="150" height="20" x="366" y="138" style="fill:none;stroke:black;"/>
   <text width="150" height="20" x="371" y="152" style="fill:black;" font-family="Arial" font-size="16px">tmb</text>
   <rect width="150" height="20" x="366" y="158" style="fill:none;stroke:black;"/>
   <text width="150" height="20" x="371" y="172" style="fill:black;" font-family="Arial" font-size="16px">porcentaje_grasa</text>
   <rect width="150" height="20" x="366" y="178" style="fill:none;stroke:black;"/>
   <text width="150" height="20" x="371" y="192" style="fill:black;" font-family="Arial" font-size="16px">masa_grasa</text>
   <rect width="150" height="20" x="366" y="198" style="fill:none;stroke:black;"/>
   <text width="150" height="20" x="371" y="212" style="fill:black;" font-family="Arial" font-size="16px">masa_magra</text>
   <rect width="150" height="20" x="366" y="218" style="fill:none;stroke:black;"/>
   <text width="150" height="20" x="371" y="232" style="fill:black;" font-family="Arial" font-size="16px">masa_muscular</text>
   <rect width="150" height="20" x="366" y="238" style="fill:none;stroke:black;"/>
   <text width="150" height="20" x="371" y="252" style="fill:black;" font-family="Arial" font-size="16px">porcentaje_musculo</text>
   <rect width="150" height="20" x="366" y="258" style="fill:none;stroke:black;"/>
   <text width="150" height="20" x="371" y="272" style="fill:black;" font-family="Arial" font-size="16px">created_at</text>
   <rect width="150" height="20" x="366" y="278" style="fill:none;stroke:black;"/>
   <text width="150" height="20" x="371" y="292" style="fill:black;" font-family="Arial" font-size="16px">updated_at</text>
   <rect width="87" height="20" x="898" y="314" style="fill:#007;stroke:black;"/>
   <text width="87" height="20" x="903" y="328" style="fill:#fff;" font-family="Arial" font-size="16px"> roles</text>
   <rect width="87" height="20" x="898" y="334" style="fill:#aea;stroke:black;"/>
   <text width="87" height="20" x="903" y="348" style="fill:black;" font-family="Arial" font-size="16px">id</text>
   <rect width="87" height="20" x="898" y="354" style="fill:none;stroke:black;"/>
   <text width="87" height="20" x="903" y="368" style="fill:black;" font-family="Arial" font-size="16px">nombre_rol</text>
   <rect width="87" height="20" x="898" y="374" style="fill:none;stroke:black;"/>
   <text width="87" height="20" x="903" y="388" style="fill:black;" font-family="Arial" font-size="16px">created_at</text>
   <rect width="87" height="20" x="898" y="394" style="fill:none;stroke:black;"/>
   <text width="87" height="20" x="903" y="408" style="fill:black;" font-family="Arial" font-size="16px">updated_at</text>
   <rect width="89" height="20" x="7" y="741" style="fill:#007;stroke:black;"/>
   <text width="89" height="20" x="12" y="755" style="fill:#fff;" font-family="Arial" font-size="16px"> sessions</text>
   <rect width="89" height="20" x="7" y="761" style="fill:none;stroke:black;"/>
   <text width="89" height="20" x="12" y="775" style="fill:black;" font-family="Arial" font-size="16px">id</text>
   <rect width="89" height="20" x="7" y="781" style="fill:none;stroke:black;"/>
   <text width="89" height="20" x="12" y="795" style="fill:black;" font-family="Arial" font-size="16px">user_id</text>
   <rect width="89" height="20" x="7" y="801" style="fill:none;stroke:black;"/>
   <text width="89" height="20" x="12" y="815" style="fill:black;" font-family="Arial" font-size="16px">ip_address</text>
   <rect width="89" height="20" x="7" y="821" style="fill:none;stroke:black;"/>
   <text width="89" height="20" x="12" y="835" style="fill:black;" font-family="Arial" font-size="16px">user_agent</text>
   <rect width="89" height="20" x="7" y="841" style="fill:none;stroke:black;"/>
   <text width="89" height="20" x="12" y="855" style="fill:black;" font-family="Arial" font-size="16px">payload</text>
   <rect width="89" height="20" x="7" y="861" style="fill:none;stroke:black;"/>
   <text width="89" height="20" x="12" y="875" style="fill:black;" font-family="Arial" font-size="16px">last_activity</text>
   <rect width="127" height="20" x="8" y="764" style="fill:#007;stroke:black;"/>
   <text width="127" height="20" x="13" y="778" style="fill:#fff;" font-family="Arial" font-size="16px"> users</text>
   <rect width="127" height="20" x="8" y="784" style="fill:#aea;stroke:black;"/>
   <text width="127" height="20" x="13" y="798" style="fill:black;" font-family="Arial" font-size="16px">id</text>
   <rect width="127" height="20" x="8" y="804" style="fill:none;stroke:black;"/>
   <text width="127" height="20" x="13" y="818" style="fill:black;" font-family="Arial" font-size="16px">name</text>
   <rect width="127" height="20" x="8" y="824" style="fill:none;stroke:black;"/>
   <text width="127" height="20" x="13" y="838" style="fill:black;" font-family="Arial" font-size="16px">email</text>
   <rect width="127" height="20" x="8" y="844" style="fill:none;stroke:black;"/>
   <text width="127" height="20" x="13" y="858" style="fill:black;" font-family="Arial" font-size="16px">email_verified_at</text>
   <rect width="127" height="20" x="8" y="864" style="fill:none;stroke:black;"/>
   <text width="127" height="20" x="13" y="878" style="fill:black;" font-family="Arial" font-size="16px">password</text>
   <rect width="127" height="20" x="8" y="884" style="fill:none;stroke:black;"/>
   <text width="127" height="20" x="13" y="898" style="fill:black;" font-family="Arial" font-size="16px">remember_token</text>
   <rect width="127" height="20" x="8" y="904" style="fill:none;stroke:black;"/>
   <text width="127" height="20" x="13" y="918" style="fill:black;" font-family="Arial" font-size="16px">created_at</text>
   <rect width="127" height="20" x="8" y="924" style="fill:none;stroke:black;"/>
   <text width="127" height="20" x="13" y="938" style="fill:black;" font-family="Arial" font-size="16px">updated_at</text>
   <rect width="132" height="20" x="897" y="37" style="fill:#007;stroke:black;"/>
   <text width="132" height="20" x="902" y="51" style="fill:#fff;" font-family="Arial" font-size="16px"> usuarios</text>
   <rect width="132" height="20" x="897" y="57" style="fill:#aea;stroke:black;"/>
   <text width="132" height="20" x="902" y="71" style="fill:black;" font-family="Arial" font-size="16px">id</text>
   <rect width="132" height="20" x="897" y="77" style="fill:none;stroke:black;"/>
   <text width="132" height="20" x="902" y="91" style="fill:black;" font-family="Arial" font-size="16px">nombre</text>
   <rect width="132" height="20" x="897" y="97" style="fill:none;stroke:black;"/>
   <text width="132" height="20" x="902" y="111" style="fill:black;" font-family="Arial" font-size="16px">email</text>
   <rect width="132" height="20" x="897" y="117" style="fill:none;stroke:black;"/>
   <text width="132" height="20" x="902" y="131" style="fill:black;" font-family="Arial" font-size="16px">fecha_nacimiento</text>
   <rect width="132" height="20" x="897" y="137" style="fill:none;stroke:black;"/>
   <text width="132" height="20" x="902" y="151" style="fill:black;" font-family="Arial" font-size="16px">contrasena</text>
   <rect width="132" height="20" x="897" y="157" style="fill:none;stroke:black;"/>
   <text width="132" height="20" x="902" y="171" style="fill:black;" font-family="Arial" font-size="16px">fecha_registro</text>
   <rect width="132" height="20" x="897" y="177" style="fill:none;stroke:black;"/>
   <text width="132" height="20" x="902" y="191" style="fill:black;" font-family="Arial" font-size="16px">fecha_cese</text>
   <rect width="132" height="20" x="897" y="197" style="fill:none;stroke:black;"/>
   <text width="132" height="20" x="902" y="211" style="fill:black;" font-family="Arial" font-size="16px">id_rol</text>
   <rect width="132" height="20" x="897" y="217" style="fill:none;stroke:black;"/>
   <text width="132" height="20" x="902" y="231" style="fill:black;" font-family="Arial" font-size="16px">created_at</text>
   <rect width="132" height="20" x="897" y="237" style="fill:none;stroke:black;"/>
   <text width="132" height="20" x="902" y="251" style="fill:black;" font-family="Arial" font-size="16px">updated_at</text>
</svg>
